<?xml version="1.0" standalone="no"?>
<!DOCTYPE svg PUBLIC "-//W3C//DTD SVG 20010904//EN"
 "http://www.w3.org/TR/2001/REC-SVG-20010904/DTD/svg10.dtd">
<svg version="1.0" xmlns="http://www.w3.org/2000/svg"
 width="260.000000pt" height="260.000000pt" viewBox="0 0 260.000000 260.000000"
 preserveAspectRatio="xMidYMid meet">
<metadata>
Created by potrace 1.11, written by Peter Selinger 2001-2013
</metadata>
<g transform="translate(0.000000,260.000000) scale(0.100000,-0.100000)"
fill="#000000" stroke="none">
<path d="M1268 2045 c-2 -2 -24 -6 -49 -8 -92 -9 -153 -64 -194 -177 -33 -90
-42 -247 -18 -315 8 -22 16 -48 18 -57 2 -9 11 -28 20 -42 9 -14 17 -29 17
-33 1 -16 32 -73 40 -73 4 0 8 -6 8 -14 0 -19 98 -126 115 -126 8 0 20 -6 27
-12 20 -19 34 -19 48 -3 7 8 18 15 25 15 17 0 75 60 75 77 0 7 4 13 10 13 11
0 50 81 50 105 0 9 5 25 11 36 40 77 59 289 33 377 -36 119 -114 219 -176 228
-18 3 -38 7 -45 9 -6 2 -13 2 -15 0z"/>
<path d="M1899 1138 c0 -68 -3 -116 -6 -108 -10 27 -57 71 -93 87 -19 8 -60
15 -90 15 -55 1 -140 -26 -140 -44 0 -5 -4 -6 -10 -3 -5 3 -10 2 -10 -3 0 -5
-9 -19 -20 -32 -11 -12 -17 -28 -13 -34 3 -6 -16 10 -42 37 -99 97 -276 105
-386 17 l-37 -29 -18 21 c-36 39 -95 61 -176 66 -100 6 -171 -20 -227 -84 -38
-44 -39 -44 -45 -20 -13 50 -71 91 -156 110 -35 7 -98 -9 -132 -34 -23 -17
-28 -18 -28 -5 0 8 -6 15 -12 16 -16 1 -120 1 -130 0 -5 -1 -8 -117 -8 -259
l0 -259 75 1 c41 0 76 3 76 6 1 3 2 79 3 169 l2 164 28 23 c27 24 52 29 91 18
37 -10 45 -49 45 -219 l0 -162 80 0 80 0 0 56 0 56 25 -32 c14 -17 46 -44 72
-59 44 -26 57 -28 143 -28 81 0 101 3 138 23 24 13 50 33 59 45 l16 21 28 -26
c53 -49 96 -63 194 -63 102 0 141 13 199 70 39 38 46 41 46 20 0 -22 65 -74
107 -85 87 -24 179 -10 233 36 l40 35 0 -34 0 -34 80 0 80 0 1 155 c0 86 2
165 4 176 10 50 83 71 126 36 23 -19 24 -25 29 -193 l5 -173 70 -1 c39 0 75 1
80 3 7 2 10 70 10 197 -2 186 -3 196 -27 243 -30 59 -96 97 -167 97 -45 0
-108 -25 -123 -48 -4 -6 -8 31 -8 82 l0 92 -80 0 -80 0 -1 -122z m-165 -144
c9 -3 13 -10 10 -15 -6 -10 -2 -10 91 -12 l65 -1 0 -65 c0 -54 -2 -62 -12 -49
-16 20 -87 58 -109 58 -26 0 -106 39 -112 54 -11 27 28 45 67 30z m-844 -27
c33 -17 70 -74 70 -109 0 -71 -57 -128 -125 -124 -129 7 -155 185 -35 238 24
11 63 9 90 -5z m765 -155 c78 -28 111 -52 102 -76 -15 -40 -84 -36 -94 5 -5
16 -15 19 -63 19 -50 0 -58 2 -55 18 2 9 4 30 4 46 1 23 4 27 19 21 9 -4 49
-19 87 -33z"/>
<path d="M2400 660 c0 -5 5 -10 10 -10 6 0 10 -14 10 -31 0 -18 4 -28 10 -24
6 4 10 12 9 18 -3 24 1 37 11 37 6 0 10 -15 11 -32 1 -31 1 -31 8 -8 l7 25 8
-24 8 -24 20 24 c13 15 18 18 14 7 -3 -10 -1 -20 4 -23 6 -4 10 11 10 34 0 45
-11 52 -33 20 l-15 -21 -7 21 c-5 17 -15 21 -46 21 -21 0 -39 -4 -39 -10z"/>
</g>
</svg>
